<?xml version="1.0" encoding="UTF-8"?><svg xmlns="http://www.w3.org/2000/svg" viewBox="0 0 706.03 653.26"><defs><style>.cls-1,.cls-2{stroke-width:0px;}.cls-2{fill:#b5b5b5;}</style></defs><g id="Layer_6"><ellipse class="cls-2" cx="188.6" cy="315.13" rx="52.88" ry="19.03" transform="translate(-15.06 9.52) rotate(-2.78)"/><ellipse class="cls-2" cx="436" cy="308.54" rx="64.74" ry="24.61" transform="translate(-14.45 21.51) rotate(-2.78)"/></g><g id="Eyeball-big"><path class="cls-1" d="m461.73,301.32c-2.7-2.11-4.86-4.01-9.11-3.51-3.71.44-5.25,2.71-7.47,4.61-2.98-3.93-7.5-6.69-10.98-4.41-.18-.85-.13-1.8-.56-2.41-1.98-2.85-.78-4.42,1.83-5.96,1.13-.67,1.7-2.3,2.54-3.52-12.74-1.27-24.27,6.88-24.27,6.88-.56,1.52-.75,1.94-.88,2.38-1.15,3.99-2.72,7.92-3.29,11.99-.52,3.68-3.71,7.93,1.13,11.18.19.13-.02.77.17,1.03.78,1.09,1.45,2.38,2.51,3.12,2.97,2.09,6.11,3.93,9.53,6.09,0,0,12.15,4.66,27.34-.12,3.94-1.89,7.3-4.2,9.43-8.13.98-1.82,2.2-3.51,3.37-5.23.46-.68,1.33-1.15,1.59-1.87,1.66-4.63,1.35-8.81-2.88-12.13Z"/></g><g id="Eyeball-small"><path class="cls-1" d="m209.63,316.74c-2.34-5.57-5.94-10.35-11.71-14.3-3.69-1.7-6-1.5-13.53-1.59s-11.46,4.84-11.46,4.84c-1.36,3.25-3.14,5.82-3.42,8.53-.5,4.89-3.49,10.63,3.16,15.12,4.93,3.06,5.81,4.32,21.22,4.59,6.97-1.61,12.97-3.87,15.45-11.17.63-1.86,1-4.33.29-6.02Z"/></g></svg>