<?xml version="1.0" encoding="UTF-8"?><svg xmlns="http://www.w3.org/2000/svg" viewBox="0 0 706.03 653.26"><defs><style>.cls-1{fill:none;}.cls-1,.cls-2,.cls-3{stroke-width:0px;}.cls-3{fill:#b5b5b5;}</style></defs><g id="Layer_5"><ellipse class="cls-3" cx="188.6" cy="315.13" rx="52.88" ry="19.03" transform="translate(-15.06 9.52) rotate(-2.78)"/><ellipse class="cls-3" cx="436" cy="308.54" rx="64.74" ry="24.61" transform="translate(-14.45 21.51) rotate(-2.78)"/><g id="Layer_1"><path class="cls-1" d="m58.44,254.93c2.24.97,4.49,1.94,7.12,3.07-.44-1.67-.73-2.8-1.14-4.37-2.13.13-4.02.25-5.9.37-.03.31-.05.62-.08.93Z"/><path class="cls-1" d="m65.9,217.53c.76-2.34,1.46-4.5,1.86-5.71-1.86-4.08-6.74-5-6.73-9.87,0-.83-.54-1.88-1.18-2.44-2.05-1.81-2.03-3.95-1.35-6.26,1.72-5.81,3.48-11.61,5.21-17.42.12-.42.09-.88.12-1.32-.35-.15-.71-.29-1.06-.44-1.39,2.35-2.84,4.68-4.17,7.06-1.49,2.66-2.62,5.55-4.35,8.03-3.13,4.48-4.53,9.54-5.47,14.75-.28,1.55.52,3.3.87,5.17,7.23-4.55,9.13-3.51,16.24,8.46Z"/><path class="cls-1" d="m183.89,91.37c5.14,2.22,10.48,3.99,16.27,6.17-1.38-5.07,4.83-17.56,8.8-19.2.43-.18.99-.29,1.41-.17,4.64,1.31,9.27,2.65,13.89,4.03,3.99,1.19,7.88,2.96,11.95,3.56,7.8,1.14,15.69,1.62,23.54,2.37,4.74.45,9.48.97,14.23,1.26,2.71.17,5.45.04,8.17-.15,2.27-.16,4.57-1.07,6.77-.84,4.02.41,7.65,3.98,12.05,1.39.09-.05.24-.02.36-.01,3.16.25,6.52-.09,9.41.93,2.87,1.01,5.04-.85,7.47-.58,3.84.43,7.63,1.38,11.25,2.07,6.12-3.83,12.64-5.12,19.72-3.89.99.17,2.13.18,3.06-.15,2.3-.83,4.52-1.9,7.86-3.34-3.45,0-6.01-.12-8.56.02-10.19.58-20.37,1.31-30.56,1.82-2.48.13-4.98-.42-7.48-.52-5.35-.22-10.72-.11-16.04-.59-6.17-.56-12.29-1.64-18.44-2.43-3.86-.5-7.72-.93-11.6-1.31-5.11-.5-10.24-.79-15.33-1.42-4.85-.6-9.65-1.67-14.51-2.27-7-.86-14.04-1.44-21.05-2.23-4.79-.54-9.57-1.22-15.02-1.93-1.71,3.79-5.47,6.06-10.62,5.88-1.79-.06-3.58-.29-5.37-.33-5.59-.11-6.39-.66-7.83-5.62-6.65,1.31-14.42-1.49-19.4,5.57.42.19,1.03.65,1.7.76,9.04,1.45,15.82,7.68,23.88,11.16Z"/><path class="cls-1" d="m440.23,101.87c5.02-3.51,9.97-7.11,14.72-10.5-.69-1.88-1.44-3.92-2.27-6.17-1.4.08-2.89.16-4.39.25.24.27.49.54.73.82-.97,1.89-1.8,3.86-2.94,5.63-.85,1.33-2.09,2.41-3.18,3.58-.64.69-1.22,1.53-2.01,1.95-3.57,1.88-7.2,3.64-10.86,5.47,3.88,2.16,5.87,2,10.19-1.03Z"/><path class="cls-1" d="m102.11,145.02c.4-.41.74-.88,1.64-1.96-4.78,1.05-8.67,1.91-11.92,2.63,1.66,1,3.77,2.28,5.97,3.62,1.28-1.27,2.8-2.77,4.31-4.29Z"/><path class="cls-1" d="m151.71,109.94c3.82,1.74,7.87,3,11.86,4.36.8.27,1.78.04,2.47.04-9.35-10.94-22.33-17.99-29.16-30.43-2.83,1.42-5.4,2.71-7.86,3.94,3.53,4.51,6.98,8.37,9.79,12.65,3.19,4.85,8.01,7.2,12.91,9.44Z"/><path class="cls-1" d="m258.85,143.98c-.03.35-.06.69-.08,1.04,5.93.47,11.86.94,17.79,1.4-5.7-3.17-11.48-5.35-17.71-2.45Z"/><path class="cls-1" d="m184.03,138.71c-5.66-1.45-11.41-2.51-17.1-3.83-1.97-.46-4.07-.86-5.77-1.87-7.26-4.3-14.71-7.98-23.19-9.25-.72,4.67-1.41,9.13-2.16,13.94,2.31,2.19,5.09,4.83,7.88,7.48q4.53-5.78,11.58-3.45c.8.26,1.66.34,2.44.64,6.69,2.58,13.32,5.32,20.05,7.76,6.65,2.41,13.4,4.55,20.12,6.77.53.17,1.16.02,1.26.02,2.84-4.13,5.42-7.88,8.31-12.09-5.59-1.08-10.67-1.87-15.64-3.09-2.68-.66-5.11-2.34-7.79-3.03Z"/><path class="cls-1" d="m588.68,355.14c-1.79-.82-3.08-2.69-4.86-3.55-4.58-2.2-7.57-7.95-6.47-12.89.3-1.36.89-3.03.41-4.14-2.25-5.12-.42-9.65,1.1-14.5,1.33-4.25,2.8-9.1,1.95-13.23-1.05-5.12-.33-9.31,1.64-13.79,1.06-2.42,3.17-5.07-.16-7.64-.63-.49-.68-2-.64-3.03.16-4.17.48-8.33.68-12.49.02-.41-.24-.94-.55-1.24-2.28-2.21-1.03-4.41-.05-6.62.44-.98.93-1.94,1.68-3.47-1.38.12-1.94.16-2.51.21-5.18.43-9.41-2.85-10.96-7.79-.52-1.65-2.32-3.05-3.81-4.21-3.55-2.76-7.84-4.65-9.84-9.13-2.68-6.02-2.22-12.72-4.48-18.93-1.82-5-1.47-10.75-2.39-16.12-.36-2.08-1.55-4.02-2.36-6.02-.53-1.31-1.12-2.6-1.55-3.94-.62-1.93-.99-3.94-1.7-5.82-.67-1.77-2.2-3.38-2.36-5.15-.24-2.55.42-5.19.7-7.91-1.24-.47-2.33-1.19-3.47-1.28-6.64-.57-9.01-6.47-12.16-10.66-1.63-2.17-2.47-5.55-4.42-8.03-.42-.54-.85-1.41-.72-2,.77-3.47-1.4-4.74-4.07-5.57-2.39-.74-4.88-1.18-7.25-1.96-1.54-.5-3.46-.99-4.34-2.15-1.95-2.55-4.47-2.65-7.23-3.12-2.31-.39-5.34-1.33-6.44-3.05-1.91-3-4.32-3.13-7.22-3.65-2.39-.42-5.3-1.5-6.64-3.29-1.37-1.83-1.46-4.88-1.5-7.41-.05-3.11.54-6.23.93-10.15-2.48,3.11-4.44,5.74-6.6,8.2-.9,1.02-2.21,1.69-3.35,2.49-1.27.9-2.86,1.53-3.78,2.7-1.9,2.39-3.25,5.23-5.2,7.56-1.65,1.97-3.68,4.72-5.8,4.98-5.25.64-8.82,4.58-13.6,5.79-6.03,1.53-12.12,3.85-18.2,3.92-5.94.07-12.35,3.68-18.05-1.04-5.35,1.1-10.93,1.6-15.95,3.55-2.4.93-3.73,4.6-5.91,7.51,2.94-.49,5.36-.99,7.81-1.3,5.04-.63,10.09-1.26,15.16-1.65,1.25-.1,2.57.71,4.82,1.4-3.27,2.02-6.4,2.87-7.37,4.81-1.55,3.07-4.16,4.33-6.57,6.09-1.22.89-2.65,1.49-3.83,2.42-3.58,2.82-7.96,4.48-11.88,6.34-6.5,3.09-14.06,4.06-21.24,5.61-7.04,1.52-14.18,2.51-21.23,3.97-16.81,3.48-33.82,4.57-50.94,4.5-1.44,0-2.93-.06-4.32.24-4.44.95-8.6,1.22-13.33.3-7.44-1.44-15.25-.95-22.9-1.36-1.52-.08-3.08-.33-4.51-.83-2.68-.92-5.19-2.44-7.92-3.04-4.78-1.04-9.7-1.43-14.5-2.36-8.08-1.57-16.13-3.35-24.18-5.08-.55-.12-1.01-.61-1.53-.88-2.29-1.17-4.49-2.63-6.92-3.41-8.2-2.63-17.36-2.43-24.4-8.47-.29-.25-.94-.18-1.41-.13-2.54.3-4.76.03-5.95-2.59,1.54,5.19-2.75,8.41-3.52,10.74,2.66,3.46,4.68,6.01,6.61,8.63,2.35,3.19,1.98,4.52-1.1,6.85-.88.66-1.58,2.27-1.48,3.36.2,2.11.87,4.21,1.63,6.21,1.07,2.77.11,4.3-2.21,6.01-1.99,1.47-3.45,3.8-4.81,5.96-1.83,2.9-3.54,5.92-4.91,9.05-1.44,3.29-5.73,4.76-5.45,9.25.07,1.1-1.97,3.16-3.25,3.34-2.77.4-2.22,2.17-2.94,3.91-1.84,4.42-4.45,8.52-6.8,12.72-.5.88-1.53,1.57-1.76,2.48-1.16,4.61-4.41,7.36-8.61,8.35-3.81.89-5.8,3.09-7.05,6.32-1.14,2.95-3.05,4.08-6.23,4.38-3.97.37-7.86,1.59-11.76,2.43,2.99,3.49,6.18,6.37,8.32,9.89,3.68,6.04,3,6.94-3.53,7.19,1.49,4.55,3.53,8.92,4.27,13.51.96,6.01.98,12.18,1.23,18.29.16,3.89,0,7.79-.03,11.68-.02,2.11-.17,4.23-.07,6.33.16,3.32,1.12,6.76.51,9.91-.36,1.84-.93,3.15.17,4.84.39.61.16,1.62.19,2.45.19,5.08.01,10.21.7,15.23.44,3.25,2.22,6.29,3.24,9.48.83,2.59,1.37,5.35-1.81,6.81-3.94,1.81-11,.53-12-2.01-.09-.22-.05-.48-.13-.71-.71-2.06-1.43-4.12-2.15-6.17-.73-2.1-2.12-4.21-2.08-6.29.13-6.5-1.52-13.07.58-19.51.18-.54.03-1.19-.01-1.79-.19-2.76-.41-5.52-.59-8.28-.24-3.75,1.55-7.68-1.11-11.25-.37-.5.11-1.6.13-2.43.08-3.64.28-7.28.17-10.92-.14-4.91-.35-9.82-.84-14.7-.57-5.73-1.03-11.32,3.87-15.78-2.43-1.98-4.53-3.89-6.83-5.52-4.13-2.91-7.61-6.83-12.89-7.99-1.19-.26-1.98-2-3.19-2.57-3.23-1.53-6.6-2.75-9.88-4.17-5.23-2.28-10.65-3.82-16.36-3.05-4.26.57-6.27,5-4.42,8.79.31.64.51,1.35.64,2.05,1.08,5.79,2.08,11.6,3.21,17.38.39,1.98,1.08,3.89,1.71,6.12,6.04-5.42,7.66-5.49,11.92.54,2.51,3.55,4.09,7.77,5.98,11.74.87,1.82,1.55,3.75,2.17,5.67.57,1.79.89,3.66,1.4,5.47,1.03,3.63,2.11,7.26,3.2,10.87,1.03,3.4,2.4,6.73,3.07,10.19.89,4.63,1.25,9.36,1.92,14.69-.86.32-2.68,1.33-4.61,1.61-1.76.25-3.64-.31-6.11-.58,1.75,3.08,3.4,5.95,5.02,8.83,1.04,1.85,2.1,3.7,3.06,5.6,1.73,3.42,2.93,7.23,5.21,10.22,1.89,2.48,4.86,4.28,7.64,5.89,4.53,2.63,9.08,5.36,14.7,5.11,3.14-.14,6.51-.49,9.4.44,2.44.79,4.57,3.05,6.44,5.05,4.97,5.31,4.66,7.11-1.33,11.05-.16.11-.2.41-.28.62,2.4,5.09,4.33,10.43,2.35,15.95-1.97,5.49-.61,10.91.82,15.69,3.04,10.15,7.54,19.87,11.54,29.73,1.63,4.03,3.54,7.95,5.25,11.95,1.88,4.38,3.71,8.78,5.51,13.19.16.39.12,1.02-.1,1.38-1.72,2.84.26,5,1.28,7.33.38.86,1.1,1.63,1.29,2.51,1.13,5.24,2.43,10.47,3.12,15.77.6,4.6.47,9.3.65,13.96.04,1.14-.18,2.35.09,3.43,1.24,4.91,1.95,10.01,4.97,14.33,1.36,1.94,2.41,4.1,3.64,6.14,1.64,2.73,2.92,5.81,5.04,8.11,7.93,8.56,16.22,16.77,24.2,25.29,2.93,3.13,5.53,6.62,7.99,10.14,6.19,8.85,13.4,16.25,24.57,18.35,2.33.44,5.14-.18,7.03.91,7.81,4.51,16.75,1.86,24.81,4.39.42.13.94-.1,1.42-.12,3.25-.14,6.62-1.42,9.56,1.3.49.45,1.79.02,2.71.03,4.62.04,9.27-.29,13.84.23,5.2.6,10.32,1.97,15.48,2.97.32.06.69-.24,1.03-.24,2.05.04,4.11.05,6.15.22.79.07,1.54.73,2.33.78,4.21.23,8.43.24,12.64.54,3.86.27,7.71,1.16,11.56,1.16,4.69,0,9.38-.69,14.07-1.02,1.17-.08,2.36.08,3.54.14,4.28.24,8.56.5,12.85.7.43.02.86-.5,1.31-.55,1.46-.15,2.94-.3,4.4-.25,3.31.12,6.61.54,9.91.49,2.83-.04,5.65-.69,8.49-.84,2.7-.14,5.43.23,8.11-.02,3.11-.29,6.16-1.12,9.26-1.51,6.93-.87,14.15-.36,20.12-5.22,1.98-1.61,4.67-2.32,6.84-3.73,3.91-2.55,7.83-5.13,11.48-8.04,4.9-3.91,9.41-8.3,14.32-12.19,4.93-3.92,10.4-7.18,15.18-11.26,8.1-6.92,16.02-14.08,23.64-21.52,3.41-3.33,7.03-6.45,9.63-10.76,3.69-6.12,8.11-11.92,12.91-17.25,7.44-8.26,15.45-16,23.22-23.96.33-.34.73-.63,1.05-.98,3.83-4.24,8.48-8,11.29-12.83,5.39-9.25,9.82-19.08,14.5-28.74,2.91-6.01,5.62-12.12,8.25-18.25,1.23-2.86,3.28-6.09,2.83-8.8-.75-4.48.96-7.61,3.02-10.98.29-.47.47-1.21.32-1.71-1.31-4.31.1-8.17,1.66-12.1,1.06-2.66,1.7-5.48,2.55-8.22,1.86-6,3.53-12.08,5.68-17.98,2.12-5.84,5.14-11.36,7.02-17.26,2.68-8.4,4.67-17.02,6.92-25.4-2.36-.57-4.64-.79-6.6-1.69Zm-296.88,96.36c3.1,1.13,6.2,2.58,8.85,4.5,2.34,1.69,1.75,3.54-1.03,4.1-7.35,1.49-14.47,1.02-21.34-2.39-2.21-1.09-4.82-1.35-7.21-2.11-3.62-1.14-7.19-2.42-10.81-3.55-1.13-.35-2.47-.84-3.5-.54-6.63,1.92-11.48-1.6-16.55-4.88-1.48-.96-3.54-1.03-5.29-1.61-1.25-.41-3.16-.7-3.54-1.57-1.99-4.63-3.83-9.55-3.14-14.61.8-5.89,2.48-11.67,3.89-17.48.27-1.13.82-2.35,1.62-3.16,1.31-1.32,2.92-2.33,4.41-3.47,1.6,2.38,4.04,4.59,4.57,7.19.48,2.37-1.77,5.19-1.66,7.76.2,4.57-2.43,9.34.57,13.85,4.36-3.62,5.98-3.15,9.05,1.58,1.58,2.44,3.9,4.41,5.95,6.53.37.38,1.04.77,1.51.7,6.29-.94,11.62,2.27,17.29,3.97,5.48,1.64,10.99,3.25,16.37,5.2Zm-27.09-156.05c.35.09.95-1.2,1.55-1.71,1.04-.88,2.45-2.52,3.21-2.28,1.55.49,3.33,1.76,3.99,3.18.75,1.61.82,3.84.4,5.62-2.11,8.84-4.08,17.75-6.86,26.39-2.88,8.96-4.36,18.18-6.41,27.29-1.48,6.6-3.32,13.13-4.41,19.79-.68,4.16-3.2,4.49-6.76,4.59-3,.4-3.54-1.48-2.96-4.24,1.29-6.16,2.93-12.26,3.82-18.47,1.52-10.59,2.29-21.3,3.94-31.87,1.26-8.11,3.21-16.13,5.25-24.09.55-2.14,1.57-5.12,5.24-4.21Zm-134.22,28.28c-2.25-3.36-2.5-5.1.22-7.44.74-.63,2.62-.94,3.32-.45,4.1,2.81,8.14,5.74,11.91,8.97,1.39,1.19,2,3.31,2.97,5-1.65.68-3.3,1.36-4.7,1.94-5.93-1.13-10.51-3.23-13.72-8.03Zm21.02,64.06c-2.82-.99-5.85-1.63-8.37-3.12-1.14-.68-1.59-3.01-1.77-4.66-.1-.93.76-2.55,1.56-2.84.86-.32,2.53.23,3.19.97,2.25,2.57,4.22,5.39,6.29,8.12-.3.51-.6,1.02-.9,1.53Zm-.29-79.63c-1.93-.04-3.26.22-4.49,2.04-3.15,4.64-5.82,5.58-11.72,4.84-.24-5.07,7.48-11.93,13.4-12.32-1.64-.45-3.28-.91-5.66-1.57,1.23-1.19,2.04-2.36,3.15-2.97,4.24-2.31,8.72-3.23,13.65-3.44,5.4-.23,10.68-2.36,16.09-3.05,9.03-1.15,18.12-1.82,27.52-3.33-1.1-.41-2.25-1.25-3.3-1.15-10.06.98-19.23-3.24-28.85-4.81-5.16-.85-10.35-1.63-15.42-2.87-7.6-1.87-15.43-3.08-22.28-7.4-2.4-1.51-2.68-3.44-1.85-5.49,1.07-2.65,2.34-5.4,4.22-7.48,2.02-2.22,4.4-3.62,8.17-1.97,5.02,2.2,10.58,3.2,15.94,4.56.55.14,1.74-.69,2.01-1.33,3.59-8.48,7.31-8.85,16.79-8.34,2.02.11,4.11-.4,6.09-.08,4.75.76,9.48,2.75,14.15,2.54,4.35-.19,8.54-.14,12.75.72,5.91,1.21,11.79,2.56,17.68,3.85,5.82,1.28,11.43.81,16.25-2.91,2.53-1.95,4.85-2.39,7.01-.12,2.96,3.12,5.72,6.46,8.29,9.91,1.36,1.82,1.24,3.77-.31,5.94-2.12,2.99-3.58,6.45-5.35,9.7-.28.52-.6,1.08-1.05,1.42-2.51,1.91-13.56.76-14.9-1.96-.85-1.72-.16-4.19-.16-6.6-.57.11-1.73.31-2.87.56-1.16.25-2.31.55-4.44,1.06,1.73,1.9,3.26,3.38,4.53,5.05,1,1.32,2.7,3.31,2.3,4.25-.96,2.27-2.28,4.84-5.66,4.72-3.85-.14-7.7-.03-11.55,0-1.02,0-2.04.1-3.47,1.05,1.72,1.3,3.47,2.57,5.16,3.92,1.86,1.49,3.4,1.17,5.74.5,1.96-.56,4.71,1.68,7.11,2.68-.33.23-.66.45-.99.68.83,1.93,1.3,4.14,2.57,5.71,1.94,2.42,4.51,4.34,6.65,6.61,1.8,1.91,2.09,3.53-.92,4.92-3.29,1.51-6.16,2.96-9.47-.07-1.73-1.57-4.07-2.47-6.16-3.63-4.98-2.75-5.39-3.63-3.91-10.07h-25.75l-24.99,3.24c-4.38.78-8.21,1.63-12.08,2.09-3.18.38-6.41.43-9.62.37Zm24.78,29.91c-2.7-.13-5.45-.54-8-1.38-.86-.28-1.65-2.31-1.55-3.46.08-.94,1.4-2.22,2.42-2.53,1.43-.43,3.08-.11,4.94-.11,3.09-.12,10.85.46,10.85.46,5.86.49,9.86.61,9.22,2.89-.33,1.17-11.55,4.44-17.88,4.13Zm119.88,212.29c-1.84,3.03-11.75,4.38-14.46,2.22-1.67-1.33-2.75-2.66-1.71-4.87,1.25-2.67,2.86-4.79,6.66-5.12,3.07,1.74,6.19,3.4,9.16,5.29.48.31.71,1.9.36,2.48Zm49.06-7c-2.12.77-4.23,1.62-6.42,2.1-2.21.49-4.51.57-6.77.83-.1.26-.2.52-.3.78-4.01-1.21-8.02-2.43-12.03-3.63-.69-.21-1.41-.29-2.12-.44-7.46-1.53-14.95-2.97-22.38-4.62-13.68-3.04-27.17-3.1-40.72,1.15-3.86,1.21-8.27.83-12.43.82-2.54,0-3.3-1.68-2.15-3.99,2.63-5.24,7.21-7.88,12.68-9.12,6.93-1.57,13.85-3.28,20.87-4.34,4.24-.64,8.73-.73,12.96-.08,7.61,1.16,15.12,2.99,22.64,4.68,3.11.7,6.15,1.77,9.22,2.67,2.75.8,5.46,1.78,8.26,2.34,5.3,1.06,10.71,1.61,15.93,2.92,1.87.47,3.74,2.25,4.91,3.93,1.37,1.98-.24,3.31-2.13,4Zm58.63-15.45c-.53.52-1.53.88-2.28.82-4.76-.4-9.57-.67-14.25-1.55-1.84-.35-3.4-2.17-5.91-3.88-3.55.02-8.24.75-12.69-2.17-2.03-1.33-5.11-1.04-7.7-1.55-3.47-.69-6.26-2.03-5.41-6.11-4.55.51-8.9,1.08-13.26,1.46-2.32.2-3.79-.73-4.2-3.38-.18-1.14-1.52-2.14-2.42-3.13-.55-.6-1.56-.93-1.85-1.6-1.59-3.68-4.75-3.87-7.82-3.16-2.78.64-4.76.16-7.31-1.22-5.86-3.18-12.28-3.98-18.95-2.5-2.62.58-5.4.43-8.08.62.63,3.54-1.13,5.92-5.11,6.5-.95.14-1.96.03-2.87.3-3.77,1.11-7.59.96-9.28-2.82-1.18-2.64-.61-6.05-.86-9.62-1.91-.37-4.91-.94-8.11-1.55-.79,2.73-1.54,5.4-2.35,8.04-.17.55-.48,1.14-.9,1.51-2.93,2.52-13.18,1.98-15.95-.65-1.55-1.47-3.24-2.94-5.13-3.87-.99-.48-3.17-.26-3.74.48-1.67,2.16-2.79,4.75-4.17,7.15-.66,1.14-1.24,2.95-2.18,3.19-5.52,1.38-9.5,6.59-15.84,5.99-4.06-.38-8.18-.07-12.28-.07.32,2.12,1.01,4.11.83,6.02-.56,5.92-3.88,8.75-10.33,9.13-2.16.13-4.34.12-6.5.07-4.6-.1-5.54-1.41-4.84-6.1.24-1.65-.11-3.38-.03-5.07.06-1.3-.04-2.85.61-3.83,1.93-2.86,3.8-6.02,6.45-8.08,2.75-2.14,3.64-4.75,3.8-7.67.38-6.93,4.78-11.34,10.06-14.16,3.45-1.84,8.21-1.21,12.38-1.74.75-.09,1.48-.41,2.19-.69,1.64-.66,3.26-1.37,5.69-2.39,3.95-8.14,4.83-8.67,11.26-6.1q6.16-5.54,13.21-.41c3.67-3.23,6.79-9.18,12.82-3.24,1.39-2.18,2.56-4.29,3.99-6.19,3-3.98,7.01-4.13,10.89-.91,2.84,2.36,6,4.32,9.02,6.46.19.14.41.3.63.33,13.37,1.69,15.76,3.89,21.88,8.02.31-.77.47-1.35.75-1.87,3.47-6.52,6.86-7.65,13.05-3.64,4.26,2.76,8.07,6.22,12.23,9.49q6.68-5.71,15.66,1.25c2.09-2.37,4.1-4.79,6.27-7.07,2.15-2.25,4.88-2.14,6.69-.02,3.08,3.62,5.78,7.59,8.32,11.62,1.57,2.49,2.53,4.38,6.24,5.22,3.92.88,7.14,4.84,10.75,7.52,1.66.35,3.96.35,5.75,1.3,5.83,3.09,9.52,8.41,12.93,13.8,1.98,3.13.84,9.17-1.76,11.75Zm-71.99-98.95c-2.93-1.67-1.21-4.01-.38-5.99.82-1.95,2.05-3.51,4.69-2.8,5.28,1.4,8.89,5.07,12.45,8.84,4.51,4.77,6.82,10.68,8.5,16.85,1.63,5.99-2.68,11.8-8.99,11.96-3.82.1-7.71-.12-11.46-.79-1.82-.32-3.39-2.01-5.08-3.08,1.53-1.55,2.81-3.89,4.65-4.48,3.15-1.01,6.66-.93,10.45-1.36-4.19-7.32-7.35-14.87-14.84-19.14Zm151.1-107.54c-1.36.42-3.07-.31-5.34-.6,6.06-9.32,16.52-11.88,23.14-19.19-19.39-11.67-40.19-17.15-62.49-15.5-.84,1.22-1.4,2.85-2.54,3.52-2.61,1.54-3.81,3.1-1.83,5.96.43.62.38,1.57.56,2.41,3.47-2.28,7.99.48,10.98,4.41,2.22-1.91,3.75-4.18,7.47-4.61,4.25-.5,6.41,1.4,9.11,3.51,4.23,3.32,4.54,7.5,2.88,12.13-.26.72-1.13,1.2-1.59,1.87-1.17,1.71-2.38,3.41-3.37,5.23-2.13,3.93-5.49,6.23-9.43,8.13-8.19,3.94-16.97,4.76-25.82,5.16-1.78.08-3.62-1.15-5.43-1.77,0-.39.02-.78.03-1.17,1.05-.57,2.1-1.14,3.88-2.1-3.42-2.16-6.56-4.01-9.53-6.09-1.05-.74-1.72-2.03-2.51-3.12-.18-.26.03-.9-.17-1.03-4.85-3.25-1.65-7.51-1.13-11.18.58-4.07,2.15-8,3.29-11.99.13-.44.32-.86.88-2.38-4.56,1.43-8.37,2.56-12.13,3.84-2.24.76-4.5,1.57-6.55,2.71-4.35,2.43-8.56,5.09-12.84,7.65-.7.42-1.37.93-2.12,1.24-5.93,2.46-7.45,5.11-6.23,11.38.34,1.74,1,3.43,1.57,5.12,1,2.94.48,5.24-1.7,7.34.8,1.08,1.59,2.17,2.71,3.7-3.83.7-6.76.66-9.35-1.62-.71-.62-1.53-1.22-2.41-1.54-5.08-1.86-7.13-6.75-10.3-10.45-.87-1.01-.94-3.68-.21-4.89,1.82-3.04,3.9-6.16,6.59-8.39,9.48-7.88,18.96-15.81,29.05-22.85,4.29-2.99,9.98-4.41,15.25-5.5,8.5-1.76,17.15-2.87,25.78-3.84,7.43-.83,14.92-1.3,22.39-1.48,4.82-.12,9.66.82,14.5.83,5.8,0,10.92,1.88,16.11,4.19,5.56,2.48,11.4,4.34,15.65,9.04,1.03,1.14,2.1,2.24,3.15,3.35,1.63,1.72,3.16,3.56,4.93,5.12,2.54,2.25,5.02,4.39,3.73,8.35-.15.45.25,1.17.56,1.67,1.45,2.37-.16,3.84-1.86,4.44-9.05,3.17-18.15,6.17-27.31,9.01Zm48.7,29.34c-2.84,7.41-8.74,12.11-14.83,16.69-2.39,1.8-4.58,3.9-6.69,6.03-2.64,2.65-7.95,2.82-11.45.16.65-5.32,4.91-8.11,8.51-11,6.68-5.39,13.79-10.26,20.86-15.15.94-.65,2.71-.12,4.09-.13-.15,1.14-.08,2.36-.48,3.4Zm-1.88-93.99c-6.17,1.5-12.47,2.54-18.53,4.41-11.6,3.58-23.67,3.75-35.51,5.58-11.84,1.83-23.7,3.53-35.6,4.96-7.33.88-14.74,1.03-22.1,1.72-11,1.03-21.97,2.26-32.96,3.39-3.09.32-6.22.42-9.29.91-7.43,1.18-14.85,2.45-22.25,3.85-3.74.71-7.36,2.12-11.12,2.58-3.78.46-5.18-1.8-3.81-5.43.55-1.46,1.24-2.88,1.99-4.25.68-1.24,1.52-2.38,2.59-4.02-1.43.09-2.35-.06-3.08.24-4.98,2.02-8.37-1.57-12.13-3.55-.65-.34-.82-2.73-.38-3.83,3.05-7.54,12.89-15.37,22.63-13.1.64.15,1.58.13,2.04-.24,4.6-3.61,9.72-4.03,15.22-2.84.94.2,2.04-.41,3.08-.57,4.76-.77,9.53-1.52,14.3-2.27,2.02-.32,4.04-.62,6.05-.98,5.53-.96,11.03-2.13,16.58-2.88,5.81-.78,11.7-1,17.51-1.8,4.66-.63,9.23-1.93,13.89-2.61,3.86-.56,7.8-.53,11.68-1,4.9-.59,9.93-.88,14.61-2.29,5.62-1.69,11.33-1.11,16.53-.14,3.55.66,6.89,4.86,9.33,8.21,1.92,2.63,3.12,3.19,5.5,1.2-1.4-1.97-.46-3.99,1.98-4.78,1.59-.51,3.3-1.18,4.51-2.28,4.71-4.28,10.8-4.42,15.64-.42,1.6,1.33,3.64,2.38,5.64,2.92,4.63,1.23,10.06,7.57,10.23,12.31.13,3.57-1.17,6.12-4.8,7Z"/><path class="cls-1" d="m560.55,100.27c3.22,2.35,6.47,4.74,9.83,7.19-.4-4.89-5.46-8.46-9.83-7.19Z"/><path class="cls-1" d="m42.09,313.15c-.32.13-.64.26-.95.38,1.33,3.96,2.66,7.92,3.99,11.88.39-.1.77-.2,1.16-.3-.2-.83-.35-1.67-.61-2.48-.35-1.07-1.37-2.3-1.1-3.14.98-3.02-.78-4.61-2.48-6.34Z"/><path class="cls-1" d="m687.49,275.46c-1.24-4.6-3.7-8.88-5.72-13.26-.24-.51-1.07-.85-1.69-1.08-10.62-3.8-20.68-1.81-30.36,3.16-6.25,3.21-12.21,6.89-17.05,12.13-.79.86-1.54,1.99-2.54,2.39-7.18,2.88-7.7,9.89-8.25,15.65-.36,3.74.33,7.63-1.3,11.32-.18.41-.13.95-.13,1.42.03,6.64-.21,13.2-4.5,18.82-.3.4-.15,1.13-.28,1.68-.44,1.77-.5,3.8-1.46,5.23-1.6,2.39-2,4.63-1.59,7.46.25,1.72-.35,4.77-1.47,5.28-6.29,2.88-5.3,8.61-6.05,13.7-.94,6.42-1.88,12.85-2.74,19.28-.42,3.12-.27,6.38-1.11,9.37-.86,3.05-.86,6.15-2.64,9.29-2.02,3.58-.54,8.9-3.53,12.75-.05.07.04.24.02.35-.21,1.56-.32,3.14-.68,4.67-.85,3.61-4.11,6.83-1.51,11.04.34.55-1.12,1.98-1.17,3.03-.12,2.43-.86,5.84.4,7.12,3.13,3.15,7.24,5.33,10.47,7.57,1.64-4.38,3.07-8.75,4.92-12.94,1.09-2.47,2.5-4.64,6.17-4.4,2.64.17,5.48-.97,8.07-1.95,3.09-1.17,5.93-3.73,9.03-4.03,10.23-1.01,18.01-6.93,26.3-11.93,3.67-2.22,7-5.72,10.94-6.62,6.18-1.42,8.64-6.9,13.26-9.91,3.92-2.55,3.57-7.7,4.29-11.85,1.47-8.46,2.41-17.01,3.6-25.52.58-4.13,1.44-8.24,1.79-12.39.36-4.27.27-8.58.37-12.87.06-2.68-.44-5.53.29-8.01,2.45-8.32.46-16.59-.11-24.8-.49-7.12-2.18-14.23-4.04-21.16Zm-23.81,70.54c-.24,2.45-1.6,4.78-2.3,7.2-1.45,5.02-2.76,10.09-4.2,15.11-1.34,4.68-2.77,9.33-4.14,14-.3,1.03-.67,2.08-.75,3.14-.56,7.07-5.27,11.12-12.37,10.56-.47-.04-.95-.16-1.42-.13-6.19.47-8.73-2.7-8.27-8.97.41-5.55.39-11.25-.46-16.73-.56-3.65-3.03-6.97-4.4-10.54-.47-1.23-.49-2.81-.21-4.12.7-3.33.77-6.02-2.24-8.72-1.8-1.62-2.82-4.82-2.95-7.38-.12-2.3,1.03-4.97,2.35-7,3.72-5.71,7.59-11.35,11.83-16.69,4.21-5.3,8.7-10.43,13.52-15.17,2.46-2.42,5.75-4.29,9-5.45,1.13-.4,3.64,1.81,4.87,3.35,1.04,1.3,1.93,3.62,1.47,5.01-.65,1.93-2.55,3.5-4.06,5.08-5.86,6.16-11.86,12.18-17.62,18.43-3.02,3.27-5.64,6.91-8.51,10.47,3.22,5.03,6.18,10.17,6.38,16.48.06,1.82,1.24,3.59,1.78,5.42.84,2.87,1.58,5.77,2.99,8.81,1.08-4.37,2.1-8.75,3.29-13.09.41-1.48,1.56-2.77,1.88-4.25.76-3.56,2.37-6.64,1.37-10.95-.91-3.9,1.45-8.77,3.04-12.95,1.03-2.72,4.08-3.21,5.82-.85,1.93,2.62,3.43,5.86,4.09,9.04.72,3.5.58,7.28.23,10.88Z"/><path class="cls-1" d="m44.4,381.59c-.08.36-.15.73-.23,1.09,5.92,2.74,11.84,5.49,18.65,8.64-2.78-4.48-4.88-7.88-7-11.3-3.71.51-7.56,1.04-11.42,1.57Z"/><path class="cls-1" d="m68.67,229.97c-.33-.9-.63-1.81-1.01-2.68-.94-2.18-1.92-4.35-2.74-6.2-3.36,3.18-3.33,5.53,1.07,8.37.71.46,1.78.36,2.68.52Z"/><path class="cls-1" d="m360.02,320.79c1.64,2.19,2.86,3.81,4.07,5.43.31-.12.62-.24.93-.36-.21-1.73-.43-3.47-.67-5.47-1.36.13-2.44.22-4.33.4Z"/><path class="cls-2" d="m706.14,314.64c-.16-8.38.77-16.83-1.74-25.06-.27-.87-.02-1.9-.03-2.85-.03-1.47.15-3-.18-4.4-.76-3.25-1.54-6.53-2.73-9.63-1.91-4.99-3.57-10.23-6.4-14.69-4.97-7.84-12.44-12.11-21.95-12.22-4.47-.05-8.94,0-13.55,0,.06-1.38.14-3.09.22-4.78,1.66-.47,3.16-.92,4.67-1.33,4.7-1.26,9.91-1.67,11.88-7.35.1-.28.47-.58.77-.67,5.53-1.57,8.24-6.54,11.94-10.21,2.83-2.81,4-6.5,1.12-10.32-3.67-4.86-6.93-10.1-11.09-14.49-1.87-1.98-5.55-3.37-8.27-3.16-4.21.32-5.59-.15-6.3-4.42-.71-4.28-1.18-8.85-3.07-12.64-2.43-4.86-5.95-9.25-9.45-13.47-1.77-2.13-4.84-3.12-6.81-5.13-6.29-6.44-9.46-14.81-13.53-22.63-3.11-5.97-5.93-12.12-9.42-17.86-3.94-6.48-5.6-6.56-11.52-2.04-.17.13-.45.09-.88.17-.97-.91-2.02-1.9-3.5-3.29,1.44-.08,2.05-.08,2.64-.14,6.55-.7,11.07-2.6,5.12-9.94-1.56-1.93-3.71-4.3-3.67-6.43.1-5.68-3.57-8.78-7-11.99-1.6-1.49-4.16-1.95-6.29-2.88-.17.29-.35.58-.52.87-.38-.6-.65-1.3-1.15-1.78-4.47-4.32-7.2-11.21-15.19-10.42-.28.03-.71-.28-.89-.55-2.18-3.28-5.41-4.98-9.05-6.03-2.25-.65-4.52-1.3-6.82-1.75-5.11-1.01-10.28-2.77-15.36-2.58-5.25.2-9.33-1.26-13.37-4.12-4.57-3.24-9.17-6.46-13.98-9.33-3.02-1.8-6.37-1.9-9.37.7-.53-.31-1.09-.55-1.55-.91-5.57-4.43-12.37-6.95-17.83-11.65-2.03-1.74-5.27-2.09-7.97-3.02-2.81-.97-5.66-1.83-8.45-2.85-4.74-1.73-9.44-3.55-14.16-5.31-.31-.11-.72-.04-1.06.05-2.39.61-4.79,1.19-7.16,1.88-5.09,1.48-9.02-.11-12.56-3.96-2.55-2.78-5.48-5.35-8.63-7.43-4.49-2.97-9.12-5.92-14.08-7.89-3.74-1.49-8.08-1.85-12.18-1.93-4.04-.08-8.09,1.15-12.15,1.21-6.44.09-12.65-3.53-19.28-1.32-.43.14-1.07-.47-1.64-.65-3.66-1.15-7.5.65-11.26-.87-1.48-.6-3.58.52-5.4.5-2.45-.02-4.91-.64-7.35-.56-5.68.2-11.35.64-17.02,1.05-1.52.11-3.05.71-4.54.62-6.62-.38-13.28-.56-19.82-1.51-6.44-.94-12.72-1.84-19.28-.68-6.26,1.11-12.66,1.41-18.99,2.06-2.37.24-4.78.28-7.11.74-8.15,1.61-15.9,4.65-24.45,5.03-8.47.38-16.89,2.38-24.98,5.29-.32.11-.71.02-1.07.04-3.56.23-7.25-.06-10.65.81-5.9,1.51-11.61,3.8-17.43,5.64-1.68.53-3.62.35-5.19,1.05-3.58,1.59-7.1,3.38-10.47,5.37-3.98,2.35-8.06,4.68-11.61,7.6-6.62,5.44-7.7,11.92-3.64,19.21-2.23,1.06-4.42,2.2-6.68,3.16-1.98.84-4.13,2.25-6.06,2.06-4.67-.47-8.43,1.69-11.82,3.91-6.04,3.96-11.67,8.58-17.21,13.24-5.91,4.97-12.37,9.62-17.04,15.63-7.21,9.27-13.18,19.5-19.48,29.46-1.83,2.89-3.12,6.16-4.38,9.37-.62,1.6-.69,3.43-.87,5.18-.18,1.8.18,3.72-.32,5.41-2.65,9.13-2.02,13.28,4.21,16.35-1.9,3.21-3.8,6.42-5.15,8.69-2.98-2.92-6.03-6.05-9.27-8.96-.63-.57-2.04-.56-3.02-.42-5.12.74-8.78,4.09-11.51,7.94-3.93,5.53-7.42,11.44-10.4,17.54-2.26,4.63-3.45,9.78-5.06,14.71-2.42,7.38-4.16,14.65,3.49,20.32.27.2.54.59.56.9.32,4.48,3.61,5.41,7.36,5.85-1.44,6.99,4.78,13.96-.39,20.67-2.84-.84-4.02-5.59-7.39-3.23-2.16,1.51-4.32,4.35-4.56,6.78-.13,1.38,3.61,3.14,5.71,4.81-5.1,2.73-9.67,7.02-11.44,13.48-.66,2.41-1.34,5.38-.52,7.52,3.48,9.06,3.5,18.67,5.11,28.01,1.05,6.09,1.77,12.24,2.77,18.34.51,3.13,1.32,6.21,2.1,9.76-4.31-1.4-8.24-4.59-11.64,1.05-4.72,7.83-5.04,9.29-.55,15.75-2.91.82-4.66-.96-6.3-2.49-2.39-2.23-4.7-2.52-6.83.02-2.12,2.53-4.02,5.26-5.88,7.99-1.94,2.84-1.96,5.39,1.8,6.96-1.11,2.47-2.34,4.7-3.09,7.09-.37,1.18-.31,3.46.35,3.82,2.42,1.33,2.23,3.41,2.51,5.54.18,1.37.9,2.65,1.3,4,1.97,6.67,9.64,8.38,12.52,14.55,1.19,2.56,4.93,4.02,7.64,5.76,3.74,2.4,7.4,5.1,11.47,6.73,3.95,1.58,8.34,2.47,12.61,2.78,6.23.45,12.52.12,18.65.12-.62,1.19-1.37,3.09-2.51,4.72-2.89,4.14-4.16,8.77-3.29,13.62.82,4.61.99,9.76,5.9,12.62.57.33.65,1.47,1,2.21.88,1.83,1.31,4.32,2.77,5.35,3.81,2.68,5.91,6.7,8.92,9.84,3.91,4.08,7.25,9.87,14.42,9.74-.95,4.19.31,7.38,2.7,10.26.49.59.71,1.49.85,2.29,1.01,5.94,7.48,9.66,12.93,8.47,1.09-.24,3.68,1.32,3.61,1.71-.75,4.31,2.66,5.28,5.21,6.83,1.89,1.15,2.12,2.41,1.64,4.51-.38,1.65.17,3.52.41,5.28.2,1.42.73,2.8.84,4.22.49,6.15.73,12.33,1.34,18.47.7,7.16,1.69,14.3,2.55,21.44.14,1.16-.15,2.62.45,3.45,2.23,3.07,1.99,7.68,5.96,9.64,1.37,7.34,8.42,10.81,11.6,16.95.79,1.52,2.77,2.37,3.98,3.72,1.14,1.27,1.85,2.95,3.01,4.2,2.74,2.93,6.31,5.32,8.29,8.67,2.42,4.1,4.78,7.86,8.48,11.07,2.95,2.56,3.22,7.73,7.88,9.04.08.02.12.2.19.3,1.73,2.77,2.97,6.06,5.29,8.2,4.58,4.23,9.4,8.45,14.8,11.47,4.03,2.25,9.07,2.83,13.74,3.74,6.23,1.21,12.56,1.95,18.82,3.05,2.31.41,4.5,1.66,6.8,1.87,4.27.39,8.59.23,12.88.44,5.76.29,11.73-.1,17.21,1.31,6.59,1.69,13.2,1.57,19.8,2.18,7.75.72,15.51,1.34,23.27,1.83,6.36.41,12.74.67,19.11.82,8.14.18,16.28.31,24.42.22,8.99-.1,17.98-.39,26.97-.78,6.35-.27,12.7-.82,19.04-1.3,1.18-.09,2.35-.32,3.5-.6,5.54-1.37,11.01-3.34,16.63-3.99,3.62-.42,6.22-2.13,9.07-3.77,1.32-.76,2.83-1.39,3.8-2.49,2.15-2.42,5.84-1.99,7.78-5.58,1.78-3.3,5.47-6.04,9.8-6.95,1.05-.22,2.25-1.07,2.82-1.98,2.7-4.29,6.5-6.73,11.31-8.28,3.03-.98,7.12-1.57,6.95-5.53,1.78-1.32,3.07-2.24,4.33-3.21,1.67-1.28,3.33-2.58,4.98-3.89,3.57-2.81,7.14-5.6,10.66-8.47.41-.33.67-1.05.7-1.61.14-2.59,1.8-3.65,3.98-4.44,1.34-.48,2.88-1.04,3.74-2.06,2.51-2.97,3.44-7.18,7.2-9.2.56-5.95,7.29-7.09,9.33-11.96.68-1.63,2.18-2.91,3.16-4.44,2.23-3.5,5.29-6.5,6.41-10.68.1-.38,1.01-.57,1.57-.81,3.06-1.35,5.77-3.01,8.48-5.17,3.38-2.7,4.19-7.84,8.97-8.9.16-.04.22-.42.37-.6,1.48-1.63,2.93-3.3,4.48-4.87,2.01-2.04,4.62-3.69,6.04-6.06,2.65-4.43,3.62-9.93,8.73-12.7.36-.19.51-.79.73-1.22,1.18-2.36,2.28-4.76,3.54-7.08,1.65-3.06,3.46-6.03,5.14-9.07.95-1.73,2.56-3.53,2.53-5.27-.07-3.8.63-6.78,3.77-8,3.15,3.15,5.77,7.27,9.52,9.09,3.85,1.87,8.12,3.45,12.48,4.65,6.63,1.82,12.53,1.22,18.6-.66,7.68-2.38,9.64-7.5,6.01-14.34,1.34-1.21,2.53-2.55,3.98-3.52,1.34-.9,2.91-1.5,4.44-2.04,7.7-2.72,11.05-7.54,7.15-13.69q8.03-4.63,6.91-12.56c2.68-1.07,5.51-2.19,4.52-5.66,3.21-3.45,7.09-5.35,10.26-8.7,4.48-4.73,6.92-7.88,1.34-12.64,2.82-2.44,5.15-4.72,7.74-6.64,5.44-4.02,11.21-7.61,16.46-11.85,2.97-2.4,5.79-5.42,7.6-8.74,3.51-6.44,4.48-13.69,4.8-20.98.04-.84-.02-1.69.11-2.52,1.1-6.83,2.32-13.63,3.32-20.47.41-2.78.11-5.66.58-8.42.71-4.22,2.23-8.34,2.62-12.57.47-5.09.2-10.26.1-15.39Zm-135.75-207.18c-3.36-2.46-6.62-4.84-9.83-7.19,4.38-1.26,9.44,2.3,9.83,7.19Zm-129.49-10.03c.79-.42,1.37-1.27,2.01-1.95,1.09-1.17,2.32-2.25,3.18-3.58,1.14-1.78,1.98-3.75,2.94-5.63-.24-.27-.49-.54-.73-.82,1.49-.08,2.98-.17,4.39-.25.83,2.25,1.58,4.29,2.27,6.17-4.75,3.39-9.7,7-14.72,10.5-4.32,3.02-6.32,3.18-10.19,1.03,3.66-1.83,7.3-3.58,10.86-5.47Zm-263.19-23.54c1.45,4.97,2.24,5.52,7.83,5.62,1.79.03,3.58.27,5.37.33,5.15.17,8.91-2.09,10.62-5.88,5.45.71,10.23,1.39,15.02,1.93,7.01.79,14.05,1.36,21.05,2.23,4.85.6,9.65,1.67,14.51,2.27,5.09.63,10.22.92,15.33,1.42,3.87.38,7.74.81,11.6,1.31,6.15.79,12.27,1.87,18.44,2.43,5.32.48,10.69.37,16.04.59,2.5.1,5,.65,7.48.52,10.19-.52,20.37-1.25,30.56-1.82,2.55-.14,5.11-.02,8.56-.02-3.34,1.44-5.55,2.51-7.86,3.34-.92.33-2.07.32-3.06.15-7.07-1.22-13.59.07-19.72,3.89-3.62-.69-7.4-1.64-11.25-2.07-2.43-.27-4.6,1.59-7.47.58-2.89-1.01-6.25-.68-9.41-.93-.12,0-.27-.04-.36.01-4.4,2.59-8.04-.98-12.05-1.39-2.2-.23-4.5.68-6.77.84-2.71.19-5.46.32-8.17.15-4.75-.29-9.49-.81-14.23-1.26-7.85-.74-15.75-1.23-23.54-2.37-4.07-.59-7.96-2.37-11.95-3.56-4.62-1.38-9.25-2.72-13.89-4.03-.42-.12-.98,0-1.41.17-3.97,1.64-10.18,14.13-8.8,19.2-5.79-2.18-11.13-3.95-16.27-6.17-8.07-3.48-14.85-9.71-23.88-11.16-.67-.11-1.29-.56-1.7-.76,4.98-7.06,12.75-4.26,19.4-5.57Zm98.85,72.54c-5.93-.47-11.86-.94-17.79-1.4.03-.35.06-.69.08-1.04,6.23-2.9,12.02-.73,17.71,2.45Zm-69.1-1.6c-2.89,4.21-5.47,7.96-8.31,12.09-.09,0-.73.15-1.26-.02-6.72-2.22-13.47-4.36-20.12-6.77-6.74-2.45-13.37-5.18-20.05-7.76-.78-.3-1.65-.38-2.44-.64q-7.05-2.33-11.58,3.45c-2.79-2.65-5.57-5.29-7.88-7.48.74-4.81,1.43-9.27,2.16-13.94,8.48,1.27,15.93,4.96,23.19,9.25,1.7,1.01,3.8,1.41,5.77,1.87,5.69,1.32,11.45,2.38,17.1,3.83,2.68.69,5.11,2.37,7.79,3.03,4.98,1.22,10.05,2.01,15.64,3.09Zm-70.58-60.91c6.84,12.44,19.82,19.48,29.16,30.43-.69,0-1.66.23-2.47-.04-3.99-1.36-8.04-2.61-11.86-4.36-4.9-2.24-9.72-4.58-12.91-9.44-2.81-4.28-6.25-8.14-9.79-12.65,2.46-1.23,5.04-2.52,7.86-3.94Zm-33.13,59.14c-.9,1.08-1.24,1.55-1.64,1.96-1.5,1.52-3.03,3.02-4.31,4.29-2.2-1.33-4.31-2.61-5.97-3.62,3.25-.72,7.14-1.58,11.92-2.63Zm-38.82,78.03c.82,1.85,1.8,4.02,2.74,6.2.38.88.68,1.79,1.01,2.68-.9-.16-1.97-.06-2.68-.52-4.4-2.84-4.43-5.19-1.07-8.37Zm.63,36.92c-2.63-1.14-4.88-2.11-7.12-3.07.03-.31.05-.62.08-.93,1.88-.12,3.77-.23,5.9-.37.41,1.57.71,2.7,1.14,4.37Zm-16.77-54.11c.94-5.21,2.34-10.27,5.47-14.75,1.73-2.48,2.87-5.37,4.35-8.03,1.33-2.39,2.77-4.71,4.17-7.06.35.15.71.29,1.06.44-.04.44,0,.9-.12,1.32-1.73,5.81-3.49,11.61-5.21,17.42-.68,2.31-.7,4.45,1.35,6.26.64.56,1.18,1.61,1.18,2.44-.02,4.87,4.87,5.79,6.73,9.87-.4,1.22-1.1,3.38-1.86,5.71-7.11-11.96-9.01-13.01-16.24-8.46-.35-1.87-1.15-3.62-.87-5.17Zm-3.11,118.73c.27.81.41,1.65.61,2.48-.39.1-.77.2-1.16.3-1.33-3.96-2.66-7.92-3.99-11.88.32-.13.64-.26.95-.38,1.7,1.73,3.46,3.32,2.48,6.34-.27.84.75,2.06,1.1,3.14Zm-1.5,60.04c.08-.36.15-.73.23-1.09,3.86-.53,7.71-1.06,11.42-1.57,2.12,3.43,4.22,6.82,7,11.3-6.81-3.16-12.73-5.9-18.65-8.64Zm537.17,16.82c-2.14,5.9-3.81,11.98-5.68,17.98-.85,2.74-1.49,5.56-2.55,8.22-1.56,3.93-2.97,7.79-1.66,12.1.15.5-.03,1.24-.32,1.71-2.07,3.37-3.77,6.5-3.02,10.98.45,2.71-1.6,5.94-2.83,8.8-2.64,6.13-5.34,12.24-8.25,18.25-4.68,9.66-9.1,19.49-14.5,28.74-2.81,4.83-7.46,8.59-11.29,12.83-.32.35-.71.64-1.05.98-7.77,7.96-15.78,15.7-23.22,23.96-4.79,5.32-9.21,11.12-12.91,17.25-2.6,4.31-6.22,7.43-9.63,10.76-7.62,7.44-15.54,14.6-23.64,21.52-4.78,4.08-10.24,7.35-15.18,11.26-4.91,3.9-9.42,8.28-14.32,12.19-3.64,2.91-7.56,5.49-11.48,8.04-2.17,1.41-4.86,2.12-6.84,3.73-5.97,4.86-13.19,4.36-20.12,5.22-3.1.39-6.16,1.22-9.26,1.51-2.68.25-5.41-.12-8.11.02-2.84.15-5.65.8-8.49.84-3.3.05-6.6-.37-9.91-.49-1.46-.05-2.94.1-4.4.25-.45.05-.88.57-1.31.55-4.28-.19-8.56-.46-12.85-.7-1.18-.07-2.37-.23-3.54-.14-4.69.33-9.38,1.02-14.07,1.02-3.85,0-7.7-.88-11.56-1.16-4.2-.3-8.43-.31-12.64-.54-.79-.04-1.53-.71-2.33-.78-2.04-.17-4.1-.18-6.15-.22-.34,0-.72.3-1.03.24-5.16-1-10.27-2.37-15.48-2.97-4.56-.52-9.22-.19-13.84-.23-.92,0-2.22.43-2.71-.03-2.94-2.72-6.31-1.44-9.56-1.3-.48.02-1,.26-1.42.12-8.06-2.53-17,.12-24.81-4.39-1.89-1.09-4.69-.47-7.03-.91-11.17-2.1-18.38-9.51-24.57-18.35-2.46-3.52-5.06-7.01-7.99-10.14-7.98-8.51-16.27-16.73-24.2-25.29-2.12-2.29-3.4-5.37-5.04-8.11-1.22-2.04-2.28-4.2-3.64-6.14-3.02-4.32-3.73-9.42-4.97-14.33-.27-1.08-.05-2.28-.09-3.43-.18-4.66-.05-9.35-.65-13.96-.69-5.3-1.99-10.53-3.12-15.77-.19-.89-.92-1.65-1.29-2.51-1.02-2.33-2.99-4.49-1.28-7.33.22-.36.26-.99.1-1.38-1.8-4.41-3.63-8.81-5.51-13.19-1.72-4-3.62-7.92-5.25-11.95-4-9.86-8.5-19.58-11.54-29.73-1.43-4.78-2.79-10.2-.82-15.69,1.98-5.52.05-10.87-2.35-15.95.09-.21.12-.51.28-.62,5.99-3.94,6.3-5.74,1.33-11.05-1.86-1.99-3.99-4.26-6.44-5.05-2.89-.93-6.25-.58-9.4-.44-5.62.25-10.17-2.48-14.7-5.11-2.78-1.61-5.75-3.42-7.64-5.89-2.28-2.99-3.48-6.79-5.21-10.22-.96-1.9-2.01-3.75-3.06-5.6-1.62-2.88-3.27-5.75-5.02-8.83,2.47.27,4.34.83,6.11.58,1.93-.27,3.75-1.29,4.61-1.61-.67-5.33-1.02-10.07-1.92-14.69-.67-3.47-2.04-6.79-3.07-10.19-1.09-3.62-2.16-7.24-3.2-10.87-.51-1.81-.83-3.68-1.4-5.47-.61-1.93-1.3-3.85-2.17-5.67-1.89-3.97-3.48-8.18-5.98-11.74-4.26-6.03-5.88-5.96-11.92-.54-.63-2.23-1.33-4.15-1.71-6.12-1.13-5.78-2.14-11.59-3.21-17.38-.13-.7-.33-1.41-.64-2.05-1.85-3.79.16-8.22,4.42-8.79,5.71-.76,11.13.78,16.36,3.05,3.28,1.43,6.65,2.64,9.88,4.17,1.21.57,2,2.31,3.19,2.57,5.28,1.17,8.76,5.08,12.89,7.99,2.3,1.62,4.4,3.54,6.83,5.52-4.9,4.46-4.44,10.05-3.87,15.78.49,4.88.7,9.8.84,14.7.1,3.63-.09,7.28-.17,10.92-.02.83-.5,1.93-.13,2.43,2.66,3.57.87,7.5,1.11,11.25.18,2.76.4,5.52.59,8.28.04.6.19,1.25.01,1.79-2.09,6.44-.44,13.01-.58,19.51-.04,2.08,1.35,4.2,2.08,6.29.72,2.06,1.44,4.11,2.15,6.17.08.22.04.49.13.71,1,2.54,8.06,3.82,12,2.01,3.19-1.46,2.64-4.23,1.81-6.81-1.02-3.19-2.8-6.23-3.24-9.48-.68-5.01-.5-10.15-.7-15.23-.03-.83.2-1.84-.19-2.45-1.09-1.69-.52-3-.17-4.84.62-3.15-.34-6.59-.51-9.91-.1-2.1.06-4.22.07-6.33.03-3.89.18-7.8.03-11.68-.25-6.11-.26-12.28-1.23-18.29-.73-4.58-2.78-8.96-4.27-13.51,6.52-.25,7.21-1.15,3.53-7.19-2.14-3.52-5.33-6.4-8.32-9.89,3.9-.85,7.79-2.06,11.76-2.43,3.18-.3,5.09-1.42,6.23-4.38,1.25-3.23,3.24-5.43,7.05-6.32,4.2-.98,7.45-3.74,8.61-8.35.23-.92,1.26-1.6,1.76-2.48,2.35-4.2,4.97-8.3,6.8-12.72.72-1.74.17-3.5,2.94-3.91,1.28-.19,3.32-2.24,3.25-3.34-.28-4.49,4.01-5.96,5.45-9.25,1.37-3.14,3.09-6.15,4.91-9.05,1.36-2.16,2.82-4.49,4.81-5.96,2.32-1.71,3.27-3.23,2.21-6.01-.77-1.99-1.43-4.1-1.63-6.21-.1-1.09.6-2.69,1.48-3.36,3.08-2.33,3.45-3.66,1.1-6.85-1.93-2.62-3.95-5.17-6.61-8.63.77-2.33,5.06-5.55,3.52-10.74,1.19,2.62,3.4,2.9,5.95,2.59.47-.06,1.12-.12,1.41.13,7.04,6.03,16.2,5.84,24.4,8.47,2.42.78,4.62,2.24,6.92,3.41.53.27.98.76,1.53.88,8.05,1.73,16.1,3.51,24.18,5.08,4.81.94,9.73,1.32,14.5,2.36,2.73.6,5.24,2.12,7.92,3.04,1.43.49,2.99.74,4.51.83,7.65.41,15.46-.08,22.9,1.36,4.73.92,8.89.65,13.33-.3,1.39-.3,2.88-.24,4.32-.24,17.12.07,34.12-1.02,50.94-4.5,7.05-1.46,14.2-2.45,21.23-3.97,7.18-1.55,14.74-2.51,21.24-5.61,3.92-1.86,8.3-3.52,11.88-6.34,1.18-.93,2.61-1.53,3.83-2.42,2.41-1.75,5.02-3.02,6.57-6.09.98-1.94,4.11-2.79,7.37-4.81-2.24-.68-3.57-1.49-4.82-1.4-5.06.39-10.11,1.02-15.16,1.65-2.45.31-4.87.8-7.81,1.3,2.18-2.92,3.51-6.58,5.91-7.51,5.02-1.95,10.6-2.45,15.95-3.55,5.7,4.73,12.11,1.11,18.05,1.04,6.09-.07,12.17-2.39,18.2-3.92,4.78-1.21,8.35-5.15,13.6-5.79,2.12-.26,4.15-3.01,5.8-4.98,1.95-2.34,3.3-5.17,5.2-7.56.92-1.16,2.51-1.8,3.78-2.7,1.14-.8,2.45-1.47,3.35-2.49,2.16-2.46,4.12-5.09,6.6-8.2-.39,3.92-.98,7.04-.93,10.15.04,2.53.13,5.57,1.5,7.41,1.34,1.79,4.25,2.87,6.64,3.29,2.9.52,5.31.65,7.22,3.65,1.1,1.72,4.13,2.66,6.44,3.05,2.76.47,5.28.57,7.23,3.12.89,1.16,2.8,1.65,4.34,2.15,2.38.78,4.86,1.22,7.25,1.96,2.67.83,4.83,2.1,4.07,5.57-.13.59.29,1.46.72,2,1.94,2.48,2.79,5.86,4.42,8.03,3.14,4.19,5.52,10.1,12.16,10.66,1.14.1,2.23.81,3.47,1.28-.29,2.73-.94,5.36-.7,7.91.16,1.77,1.69,3.37,2.36,5.15.71,1.88,1.09,3.9,1.7,5.82.43,1.34,1.02,2.63,1.55,3.94.81,2,2,3.94,2.36,6.02.92,5.37.57,11.12,2.39,16.12,2.26,6.22,1.8,12.91,4.48,18.93,2,4.48,6.28,6.37,9.84,9.13,1.49,1.16,3.3,2.56,3.81,4.21,1.54,4.94,5.77,8.22,10.96,7.79.57-.05,1.13-.09,2.51-.21-.74,1.54-1.24,2.49-1.68,3.47-.98,2.2-2.23,4.41.05,6.62.3.3.57.83.55,1.24-.2,4.17-.52,8.33-.68,12.49-.04,1.03,0,2.54.64,3.03,3.33,2.57,1.22,5.22.16,7.64-1.97,4.48-2.69,8.67-1.64,13.79.85,4.12-.62,8.98-1.95,13.23-1.52,4.85-3.34,9.38-1.1,14.5.49,1.11-.1,2.78-.41,4.14-1.1,4.94,1.9,10.69,6.47,12.89,1.78.85,3.08,2.73,4.86,3.55,1.96.9,4.23,1.12,6.6,1.69-2.25,8.38-4.24,17-6.92,25.4-1.88,5.9-4.9,11.43-7.02,17.26Zm110.3-78.07c-.73,2.48-.22,5.33-.29,8.01-.1,4.29,0,8.6-.37,12.87-.35,4.15-1.22,8.26-1.79,12.39-1.19,8.51-2.12,17.06-3.6,25.52-.72,4.15-.37,9.3-4.29,11.85-4.62,3-7.09,8.49-13.26,9.91-3.94.91-7.27,4.41-10.94,6.62-8.28,5-16.07,10.92-26.3,11.93-3.11.31-5.94,2.87-9.03,4.03-2.59.98-5.42,2.12-8.07,1.95-3.68-.24-5.08,1.93-6.17,4.4-1.85,4.19-3.28,8.56-4.92,12.94-3.23-2.23-7.34-4.41-10.47-7.57-1.26-1.28-.52-4.69-.4-7.12.05-1.05,1.5-2.49,1.17-3.03-2.6-4.2.66-7.42,1.51-11.04.36-1.52.46-3.11.68-4.67.02-.12-.07-.28-.02-.35,2.99-3.85,1.51-9.17,3.53-12.75,1.78-3.15,1.78-6.24,2.64-9.29.84-2.99.69-6.25,1.11-9.37.87-6.43,1.8-12.86,2.74-19.28.75-5.08-.25-10.82,6.05-13.7,1.11-.51,1.71-3.56,1.47-5.28-.41-2.83-.01-5.08,1.59-7.46.96-1.43,1.02-3.46,1.46-5.23.14-.55-.02-1.28.28-1.68,4.29-5.62,4.53-12.18,4.5-18.82,0-.48-.06-1.01.13-1.42,1.63-3.69.94-7.58,1.3-11.32.55-5.76,1.08-12.77,8.25-15.65,1.01-.4,1.75-1.53,2.54-2.39,4.84-5.23,10.8-8.92,17.05-12.13,9.68-4.97,19.74-6.96,30.36-3.16.63.22,1.46.56,1.69,1.08,2.02,4.38,4.48,8.66,5.72,13.26,1.87,6.92,3.56,14.04,4.04,21.16.56,8.2,2.56,16.48.11,24.8Z"/><path class="cls-2" d="m392.4,502.35c-1.79-.95-4.08-.95-5.75-1.3-3.61-2.67-6.83-6.64-10.75-7.52-3.7-.83-4.66-2.72-6.24-5.22-2.54-4.03-5.24-8-8.32-11.62-1.81-2.12-4.54-2.24-6.69.02-2.17,2.27-4.18,4.7-6.27,7.07q-8.99-6.96-15.66-1.25c-4.17-3.27-7.97-6.73-12.23-9.49-6.19-4.01-9.58-2.88-13.05,3.64-.28.52-.44,1.1-.75,1.87-6.12-4.13-8.51-6.33-21.88-8.02-.22-.03-.44-.19-.63-.33-3.02-2.13-6.18-4.1-9.02-6.46-3.88-3.22-7.89-3.08-10.89.91-1.44,1.91-2.6,4.01-3.99,6.19-6.03-5.95-9.15,0-12.82,3.24q-7.05-5.13-13.21.41c-6.43-2.57-7.31-2.04-11.26,6.1-2.43,1.02-4.05,1.73-5.69,2.39-.71.29-1.44.6-2.19.69-4.17.53-8.94-.11-12.38,1.74-5.28,2.82-9.68,7.23-10.06,14.16-.16,2.93-1.05,5.54-3.8,7.67-2.65,2.06-4.52,5.21-6.45,8.08-.66.98-.56,2.53-.61,3.83-.07,1.69.28,3.42.03,5.07-.69,4.69.24,6,4.84,6.1,2.17.05,4.34.05,6.5-.07,6.45-.38,9.77-3.2,10.33-9.13.18-1.91-.51-3.9-.83-6.02,4.11,0,8.23-.31,12.28.07,6.34.6,10.32-4.6,15.84-5.99.94-.23,1.52-2.05,2.18-3.19,1.38-2.39,2.49-4.98,4.17-7.15.57-.73,2.75-.96,3.74-.48,1.89.92,3.58,2.39,5.13,3.87,2.78,2.63,13.02,3.18,15.95.65.42-.36.73-.96.9-1.51.81-2.64,1.56-5.31,2.35-8.04,3.21.61,6.2,1.19,8.11,1.55.25,3.57-.32,6.99.86,9.62,1.69,3.78,5.51,3.93,9.28,2.82.91-.27,1.92-.16,2.87-.3,3.98-.58,5.74-2.96,5.11-6.5,2.68-.18,5.46-.04,8.08-.62,6.67-1.48,13.09-.68,18.95,2.5,2.55,1.38,4.53,1.86,7.31,1.22,3.07-.71,6.23-.52,7.82,3.16.29.67,1.3,1,1.85,1.6.9.99,2.25,1.98,2.42,3.13.41,2.64,1.88,3.58,4.2,3.38,4.37-.38,8.72-.95,13.26-1.46-.85,4.08,1.94,5.42,5.41,6.11,2.59.51,5.67.22,7.7,1.55,4.46,2.93,9.14,2.19,12.69,2.17,2.51,1.71,4.07,3.54,5.91,3.88,4.68.89,9.48,1.16,14.25,1.55.74.06,1.75-.29,2.28-.82,2.6-2.58,3.74-8.62,1.76-11.75-3.41-5.38-7.1-10.71-12.93-13.8Z"/><path class="cls-2" d="m524.07,237.45c-2.01-.53-4.04-1.59-5.64-2.92-4.83-4-10.92-3.86-15.64.42-1.21,1.1-2.92,1.77-4.51,2.28-2.44.78-3.39,2.81-1.98,4.78-2.38,1.99-3.58,1.43-5.5-1.2-2.44-3.34-5.78-7.54-9.33-8.21-5.21-.97-10.92-1.55-16.53.14-4.68,1.41-9.71,1.7-14.61,2.29-3.88.47-7.82.44-11.68,1-4.66.68-9.23,1.97-13.89,2.61-5.81.79-11.7,1.01-17.51,1.8-5.56.75-11.06,1.91-16.58,2.88-2.01.35-4.03.65-6.05.98-4.77.76-9.53,1.5-14.3,2.27-1.04.17-2.14.78-3.08.57-5.51-1.2-10.62-.78-15.22,2.84-.47.37-1.4.39-2.04.24-9.75-2.27-19.58,5.56-22.63,13.1-.45,1.1-.27,3.49.38,3.83,3.75,1.98,7.15,5.58,12.13,3.55.73-.3,1.65-.14,3.08-.24-1.07,1.64-1.91,2.79-2.59,4.02-.75,1.37-1.43,2.79-1.99,4.25-1.37,3.62.03,5.89,3.81,5.43,3.75-.46,7.38-1.88,11.12-2.58,7.39-1.4,14.82-2.66,22.25-3.85,3.07-.49,6.19-.59,9.29-.91,10.99-1.13,21.97-2.36,32.96-3.39,7.35-.69,14.77-.84,22.1-1.72,11.89-1.43,23.76-3.13,35.6-4.96,11.84-1.83,23.92-2,35.51-5.58,6.05-1.87,12.36-2.91,18.53-4.41,3.63-.88,4.93-3.43,4.8-7-.17-4.74-5.6-11.08-10.23-12.31Z"/><path class="cls-2" d="m511.85,307.96c-.31-.5-.71-1.21-.56-1.67,1.29-3.96-1.19-6.09-3.73-8.35-1.77-1.57-3.3-3.4-4.93-5.12-1.06-1.11-2.12-2.21-3.15-3.35-4.25-4.7-10.08-6.56-15.65-9.04-5.19-2.31-10.32-4.18-16.11-4.19-4.83,0-9.67-.95-14.5-.83-7.47.18-14.96.65-22.39,1.48-8.63.96-17.29,2.08-25.78,3.84-5.27,1.09-10.95,2.5-15.25,5.5-10.09,7.04-19.57,14.97-29.05,22.85-2.69,2.23-4.77,5.35-6.59,8.39-.72,1.21-.65,3.88.21,4.89,3.18,3.7,5.22,8.59,10.3,10.45.88.32,1.69.92,2.41,1.54,2.6,2.27,5.53,2.32,9.35,1.62-1.12-1.53-1.92-2.61-2.71-3.7,2.18-2.1,2.7-4.4,1.7-7.34-.58-1.69-1.24-3.37-1.57-5.12-1.21-6.27.3-8.93,6.23-11.38.75-.31,1.42-.82,2.12-1.24,4.27-2.56,8.49-5.23,12.84-7.65,2.05-1.14,4.32-1.95,6.55-2.71,3.76-1.28,7.57-2.41,12.13-3.84,6.44-1.47,10.75-5.04,24.27-6.88,22.3-1.65,43.1,3.83,62.49,15.5-6.63,7.32-17.08,9.87-23.14,19.19,2.27.29,3.98,1.02,5.34.6,9.15-2.84,18.26-5.84,27.31-9.01,1.7-.6,3.31-2.07,1.86-4.44Zm-147.77,18.25c-1.21-1.62-2.43-3.24-4.07-5.43,1.89-.17,2.97-.27,4.33-.4.25,2,.46,3.73.67,5.47-.31.12-.62.24-.93.36Z"/><path class="cls-2" d="m422.88,328.8c-1.78.96-2.83,1.53-3.88,2.1,0,.39-.02.78-.03,1.17,1.81.62,3.65,1.85,5.43,1.77,8.84-.4,17.62-1.23,25.82-5.16,0-2.73-4.67-.89-12.71-1.2-9.01-.35-14.63,1.32-14.63,1.32Z"/><path class="cls-2" d="m342.18,535.43c-5.22-1.31-10.63-1.86-15.93-2.92-2.8-.56-5.51-1.54-8.26-2.34-3.07-.89-6.1-1.97-9.22-2.67-7.52-1.69-15.03-3.52-22.64-4.68-4.23-.65-8.72-.56-12.96.08-7.02,1.06-13.94,2.76-20.87,4.34-5.47,1.24-10.05,3.88-12.68,9.12-1.16,2.31-.39,3.98,2.15,3.99,4.16.01,8.57.39,12.43-.82,13.54-4.24,27.03-4.18,40.72-1.15,7.44,1.65,14.92,3.09,22.38,4.62.71.15,1.43.23,2.12.44,4.02,1.19,8.02,2.42,12.03,3.63.1-.26.2-.52.3-.78,2.26-.26,4.56-.34,6.77-.83,2.19-.48,4.3-1.34,6.42-2.1,1.9-.68,3.51-2.02,2.13-4-1.16-1.68-3.03-3.46-4.91-3.93Z"/><path class="cls-2" d="m258.15,442.32c-.47.07-1.14-.32-1.51-.7-2.04-2.13-4.36-4.09-5.95-6.53-3.07-4.73-4.69-5.19-9.05-1.58-3.01-4.51-.37-9.28-.57-13.85-.11-2.57,2.14-5.39,1.66-7.76-.52-2.6-2.96-4.81-4.57-7.19-1.48,1.14-3.1,2.15-4.41,3.47-.8.81-1.35,2.03-1.62,3.16-1.41,5.8-3.09,11.58-3.89,17.48-.69,5.06,1.15,9.97,3.14,14.61.38.88,2.29,1.16,3.54,1.57,1.76.58,3.81.64,5.29,1.61,5.07,3.29,9.92,6.81,16.55,4.88,1.03-.3,2.37.19,3.5.54,3.62,1.13,7.19,2.41,10.81,3.55,2.39.75,5,1.01,7.21,2.11,6.87,3.41,13.99,3.88,21.34,2.39,2.78-.56,3.37-2.41,1.03-4.1-2.66-1.92-5.75-3.38-8.85-4.5-5.38-1.95-10.88-3.56-16.37-5.2-5.67-1.7-11-4.91-17.29-3.97Z"/><path class="cls-2" d="m259.47,299.64c-2.04,7.96-3.99,15.98-5.25,24.09-1.65,10.57-2.42,21.28-3.94,31.87-.89,6.21-2.53,12.32-3.82,18.47-.58,2.75-.04,4.64,2.96,4.24,3.55-.1,6.08-.43,6.76-4.59,1.09-6.66,2.93-13.19,4.41-19.79,2.05-9.12,3.53-18.34,6.41-27.29,2.78-8.64,4.75-17.55,6.86-26.39.42-1.77.35-4.01-.4-5.62-.66-1.42-2.44-2.69-3.99-3.18-.76-.24-2.17,1.4-3.21,2.28-.6.51-1.2,1.79-1.55,1.71-3.67-.91-4.69,2.07-5.24,4.21Z"/><path class="cls-2" d="m331.33,453.93c1.68,1.07,3.26,2.76,5.08,3.08,3.75.67,7.64.89,11.46.79,6.31-.16,10.62-5.97,8.99-11.96-1.68-6.17-3.99-12.08-8.5-16.85-3.56-3.77-7.17-7.44-12.45-8.84-2.64-.7-3.87.85-4.69,2.8-.83,1.98-2.56,4.33.38,5.99,7.5,4.27,10.65,11.82,14.84,19.14-3.8.43-7.3.35-10.45,1.36-1.84.59-3.12,2.93-4.65,4.48Z"/><path class="cls-2" d="m527.77,347.48c-7.07,4.88-14.18,9.76-20.86,15.15-3.59,2.89-7.85,5.68-8.51,11,3.51,2.66,8.82,2.48,11.45-.16,2.12-2.13,4.3-4.23,6.69-6.03,6.09-4.58,11.99-9.27,14.83-16.69.4-1.04.33-2.26.48-3.4-1.38.01-3.15-.52-4.09.13Z"/><path class="cls-2" d="m148.92,329.81c-.97-1.69-1.57-3.81-2.97-5-3.77-3.23-7.81-6.17-11.91-8.97-.71-.49-2.58-.18-3.32.45-2.73,2.34-2.47,4.08-.22,7.44,3.21,4.8,7.79,6.9,13.72,8.03,1.41-.58,3.05-1.26,4.7-1.94Z"/><path class="cls-2" d="m286.37,542.58c-3.79.32-5.4,2.45-6.66,5.12-1.04,2.21.04,3.55,1.71,4.87,2.72,2.16,12.62.81,14.46-2.22.35-.58.13-2.17-.36-2.48-2.97-1.89-6.09-3.55-9.16-5.29Z"/><path class="cls-2" d="m142.93,377.16c-.8.29-1.66,1.91-1.56,2.84.18,1.65.63,3.98,1.77,4.66,2.52,1.49,5.55,2.13,8.37,3.12.3-.51.6-1.02.9-1.53-2.08-2.73-4.04-5.55-6.29-8.12-.66-.75-2.33-1.29-3.19-.97Z"/><path class="cls-2" d="m659.36,326.09c-1.74-2.36-4.78-1.87-5.82.85-1.59,4.18-3.95,9.06-3.04,12.95,1,4.31-.61,7.39-1.37,10.95-.31,1.48-1.47,2.77-1.88,4.25-1.2,4.34-2.21,8.72-3.29,13.09-1.42-3.04-2.15-5.94-2.99-8.81-.54-1.83-1.72-3.6-1.78-5.42-.2-6.31-3.16-11.45-6.38-16.48,2.87-3.56,5.5-7.2,8.51-10.47,5.76-6.25,11.77-12.27,17.62-18.43,1.51-1.59,3.41-3.15,4.06-5.08.47-1.39-.43-3.71-1.47-5.01-1.23-1.54-3.74-3.75-4.87-3.35-3.26,1.16-6.54,3.03-9,5.45-4.82,4.74-9.31,9.87-13.52,15.17-4.23,5.33-8.11,10.98-11.83,16.69-1.32,2.03-2.47,4.69-2.35,7,.13,2.56,1.15,5.76,2.95,7.38,3,2.7,2.94,5.39,2.24,8.72-.28,1.31-.26,2.89.21,4.12,1.37,3.56,3.84,6.89,4.4,10.54.85,5.48.86,11.18.46,16.73-.46,6.27,2.08,9.44,8.27,8.97.47-.04.94.09,1.42.13,7.1.56,11.81-3.49,12.37-10.56.08-1.06.45-2.11.75-3.14,1.37-4.67,2.8-9.32,4.14-14,1.44-5.03,2.75-10.09,4.2-15.11.7-2.43,2.05-4.75,2.3-7.2.36-3.6.5-7.37-.23-10.88-.66-3.18-2.15-6.42-4.09-9.04Z"/><path class="cls-2" d="m193.89,333.93c.64-2.28-3.36-2.4-9.22-2.89,0,0-7.76-.58-10.85-.46-1.86,0-3.52-.32-4.94.11-1.02.31-2.33,1.59-2.42,2.53-.1,1.15.69,3.18,1.55,3.46,2.55.84,5.3,1.25,8,1.38,6.33.31,17.56-2.97,17.88-4.13Z"/><path class="cls-2" d="m197.92,302.44h25.75c-1.48,6.44-1.07,7.32,3.91,10.07,2.09,1.16,4.44,2.06,6.16,3.63,3.32,3.02,6.19,1.58,9.47.07,3.02-1.39,2.73-3.01.92-4.92-2.15-2.28-4.71-4.19-6.65-6.61-1.26-1.58-1.74-3.79-2.57-5.71.33-.23.66-.45.99-.68-2.4-1-5.15-3.24-7.11-2.68-2.34.66-3.88.99-5.74-.5-1.69-1.35-3.44-2.62-5.16-3.92,1.43-.95,2.45-1.04,3.47-1.05,3.85-.03,7.71-.13,11.55,0,3.38.12,4.71-2.45,5.66-4.72.4-.94-1.3-2.93-2.3-4.25-1.27-1.67-2.8-3.15-4.53-5.05,2.13-.51,3.28-.8,4.44-1.06,1.14-.25,2.3-.45,2.87-.56,0,2.41-.69,4.88.16,6.6,1.34,2.72,12.39,3.87,14.9,1.96.45-.34.77-.91,1.05-1.42,1.77-3.25,3.22-6.71,5.35-9.7,1.54-2.17,1.66-4.12.31-5.94-2.57-3.45-5.33-6.79-8.29-9.91-2.16-2.27-4.48-1.83-7.01.12-4.82,3.72-10.43,4.19-16.25,2.91-5.89-1.29-11.77-2.64-17.68-3.85-4.2-.86-8.39-.91-12.75-.72-4.66.21-9.4-1.78-14.15-2.54-1.97-.32-4.06.19-6.09.08-9.49-.51-13.21-.15-16.79,8.34-.27.64-1.47,1.46-2.01,1.33-5.37-1.35-10.92-2.36-15.94-4.56-3.76-1.65-6.15-.25-8.17,1.97-1.88,2.08-3.15,4.83-4.22,7.48-.83,2.05-.55,3.98,1.85,5.49,6.85,4.32,14.67,5.53,22.28,7.4,5.07,1.24,10.26,2.02,15.42,2.87,9.61,1.58,18.78,5.79,28.85,4.81,1.05-.1,2.2.74,3.3,1.15-9.41,1.5-18.5,2.17-27.52,3.33-5.41.69-10.7,2.81-16.09,3.05-4.94.21-9.42,1.13-13.65,3.44-1.11.61-1.92,1.78-3.15,2.97,2.38.66,4.02,1.11,5.66,1.57-5.93.39-13.64,7.25-13.4,12.32,5.9.75,8.58-.2,11.72-4.84,1.23-1.82,2.56-2.07,4.49-2.04,3.21.06,6.44.01,9.62-.37,3.88-.46,7.71-1.32,12.08-2.09l24.99-3.24Z"/></g></g><g id="Eyeball-big"><path class="cls-2" d="m461.73,301.32c-2.7-2.11-4.86-4.01-9.11-3.51-3.71.44-5.25,2.71-7.47,4.61-2.98-3.93-7.5-6.69-10.98-4.41-.18-.85-.13-1.8-.56-2.41-1.98-2.85-.78-4.42,1.83-5.96,1.13-.67,1.7-2.3,2.54-3.52-12.74-1.27-24.27,6.88-24.27,6.88-.56,1.52-.75,1.94-.88,2.38-1.15,3.99-2.72,7.92-3.29,11.99-.52,3.68-3.71,7.93,1.13,11.18.19.13-.02.77.17,1.03.78,1.09,1.45,2.38,2.51,3.12,2.97,2.09,6.11,3.93,9.53,6.09,0,0,12.15,4.66,27.34-.12,3.94-1.89,7.3-4.2,9.43-8.13.98-1.82,2.2-3.51,3.37-5.23.46-.68,1.33-1.15,1.59-1.87,1.66-4.63,1.35-8.81-2.88-12.13Z"/></g><g id="Eyeball-small"><path class="cls-2" d="m209.63,316.74c-2.34-5.57-5.94-10.35-11.71-14.3-3.69-1.7-6-1.5-13.53-1.59s-11.46,4.84-11.46,4.84c-1.36,3.25-3.14,5.82-3.42,8.53-.5,4.89-3.49,10.63,3.16,15.12,4.93,3.06,5.81,4.32,21.22,4.59,6.97-1.61,12.97-3.87,15.45-11.17.63-1.86,1-4.33.29-6.02Z"/></g></svg>